<svg xmlns="http://www.w3.org/2000/svg" width="482" height="191.164" viewBox="0 0 482 191.164"><g transform="translate(-188.524 -106.98)"><path d="M229.246,198.38V108.7h17V198.38Z" transform="translate(44.137 1.864)" fill="#fff"/><path d="M322.038,150.39q9.652,13.738,15.683,24.4h.4q-.8-17.492-.8-25.469V108.7H353.74V198.38H336.515l-29.222-41.288q-7.711-10.722-15.952-24.867h-.4q.806,16.489.806,25.538V198.38H275.32V108.7h17.225Z" transform="translate(94.076 1.864)" fill="#fff"/><path d="M231.154,221.589q2.479-7.3,3.586-10.424T239.4,198.4l16.623-44.574h17.363L238.327,243.51H223.579l-35.055-89.686h17.492L222.641,198.4q3.551,9.652,4.657,12.768t3.586,10.424Z" transform="translate(0 50.773)" fill="#fff"/><path d="M283.869,220.7H250.1l-8.784,22.858h-17.5l36.37-89.686h14.237l35.593,89.686H292.655ZM266.85,175.451q-4.7,14.075-8.392,23.521l-3.067,7.983h23.183l-3.065-7.983q-3.645-9.531-8.392-23.521Z" transform="translate(38.252 50.821)" fill="#fff"/><path d="M306.774,243.554H290.351V167.607H261.4V153.868h74.267v13.739H306.774Z" transform="translate(78.984 50.821)" fill="#fff"/><path d="M305.072,243.554V153.868h16.421v89.686Z" transform="translate(126.323 50.821)" fill="#fff"/><path d="M428.91,195.56q9.653,13.738,15.685,24.4h.4q-.8-17.5-.8-25.471V153.868h16.421v89.686H443.389l-29.224-41.292q-7.711-10.722-15.952-24.867h-.4q.8,16.489.8,25.538v40.621H382.19V153.868H399.42Z" transform="translate(209.909 50.821)" fill="#fff"/><g transform="translate(306.513 110.564)"><path d="M290.1,174.786h.394q-.788-17.492-.788-25.469V108.7H245.9l28.859,41.69Q284.2,164.128,290.1,174.786Z" transform="translate(-244.326 -108.7)" fill="#fff"/><path d="M245.538,119.989h-.394q.788,16.489.788,25.538v40.617h43.811l-28.595-41.288Q253.6,134.134,245.538,119.989Z" transform="translate(-245.144 -96.464)" fill="#fff"/></g><path d="M409.784,146.313l-19.926,8.815a42.886,42.886,0,1,1-49.7,22.139l-19.92,9.148a59.1,59.1,0,1,0,89.55-40.1Z" transform="translate(141.774 42.632)" fill="#fff"/><path d="M378.364,106.98a59.08,59.08,0,0,0-30.529,109.689l20.132-9.044a42.878,42.878,0,1,1,48.7-22.4l19.92-9.146a58.82,58.82,0,0,0-58.219-69.1Z" transform="translate(141.677 0)" fill="#fff"/></g></svg>