<svg xmlns="http://www.w3.org/2000/svg" width="59.347" height="59.347" viewBox="0 0 59.347 59.347"><g transform="translate(-744.098 -723.254)"><rect width="59.347" height="59.347" transform="translate(744.098 723.254)" fill="none"/><path d="M787.619,746.7l4.55-7.863a1.558,1.558,0,0,0-2.7-1.558l-4.649,8.012a28.346,28.346,0,0,0-22.107,0l-4.649-8.012a1.557,1.557,0,0,0-2.695,1.558l4.55,7.863a26.657,26.657,0,0,0-13.353,21.068h54.4A26.656,26.656,0,0,0,787.619,746.7Zm-26.211,14.268a3.091,3.091,0,1,1,3.091-3.091A3.092,3.092,0,0,1,761.408,760.964Zm24.727,0a3.091,3.091,0,1,1,3.091-3.091A3.092,3.092,0,0,1,786.135,760.964Z" fill="#1e1e1e"/></g></svg>