<svg xmlns="http://www.w3.org/2000/svg" width="164.697" height="141.997" viewBox="0 0 164.697 141.997"><g transform="translate(0 14.414)"><g transform="translate(2.048)"><path d="M177.969,169.953v15.233h17.774V143.04l-14.121-25.186.036-.038-.813-1.348-6.21-11.076a19.83,19.83,0,0,0-5.472-6.634,14.564,14.564,0,0,0-9.995-3.419H120.974c-7.139,0-11.966,3.368-15.379,9.681L84.486,142.668v42.146H102.26V169.953Z" transform="translate(-84.486 -95.339)" fill="#2e2e2d"/><path d="M141.061,101.78c4.877,0,8.176,2.3,10.505,6.612l9.623,15.409-64.542.015,8.647-15.422c2.332-4.312,5.628-6.612,10.507-6.612h25.259Z" transform="translate(-73.817 -89.688)" fill="#fff"/></g><line x1="11.227" transform="translate(0 35.012)" fill="none" stroke="#2e2e2d" stroke-miterlimit="10" stroke-width="4"/><line x1="11.225" transform="translate(103.627 34.449)" fill="none" stroke="#2e2e2d" stroke-miterlimit="10" stroke-width="4"/></g><g transform="translate(28.261)"><g transform="translate(28.478)"><path d="M221.577,141.64A53.98,53.98,0,1,1,167.6,87.661,53.981,53.981,0,0,1,221.577,141.64Z" transform="translate(-113.618 -87.661)" fill="#fff"/><path d="M166.05,183.66A45.865,45.865,0,1,1,209.615,135.6,45.918,45.918,0,0,1,166.05,183.66Zm-3.976-81.121a35.353,35.353,0,1,0,37.041,33.578A35.39,35.39,0,0,0,162.074,102.539Z" transform="translate(-109.826 -83.869)" fill="#00afcb"/></g><path d="M103.963,193.375a5.256,5.256,0,0,1-4.153-8.78l48.823-53.858a5.256,5.256,0,1,1,7.789,7.061L107.6,191.655A5.235,5.235,0,0,1,103.963,193.375Z" transform="translate(-98.449 -51.384)" fill="#00afcb"/></g></svg>