<svg xmlns="http://www.w3.org/2000/svg" width="136.724" height="87.907" viewBox="0 0 136.724 87.907"><g transform="translate(0 0)"><path d="M251,477.766a22.451,22.451,0,0,1-1.128,7.277,16.078,16.078,0,0,1-3.295,5.694,14.767,14.767,0,0,1-5.318,3.71,20.1,20.1,0,0,1-14.345,0,14.768,14.768,0,0,1-5.318-3.71,16.05,16.05,0,0,1-3.295-5.694,24.028,24.028,0,0,1,0-14.553,16.084,16.084,0,0,1,3.295-5.694,14.814,14.814,0,0,1,5.318-3.71,20.1,20.1,0,0,1,14.345,0,14.814,14.814,0,0,1,5.318,3.71,16.112,16.112,0,0,1,3.295,5.694A22.459,22.459,0,0,1,251,477.766Zm-6.563,0a17.764,17.764,0,0,0-.779-5.538,11.352,11.352,0,0,0-2.151-3.956,8.661,8.661,0,0,0-3.27-2.362,11.471,11.471,0,0,0-8.3,0,8.641,8.641,0,0,0-3.268,2.362,11.357,11.357,0,0,0-2.153,3.956,20.12,20.12,0,0,0,0,11.076,11.233,11.233,0,0,0,2.153,3.944,8.8,8.8,0,0,0,3.268,2.36,11.269,11.269,0,0,0,8.3,0,8.821,8.821,0,0,0,3.27-2.36,11.229,11.229,0,0,0,2.151-3.944A17.764,17.764,0,0,0,244.433,477.766Z" transform="translate(-194.11 -424.556)" fill="#1e1e1e" stroke="#1e1e1e" stroke-miterlimit="10" stroke-width="0.25"/><path d="M241.479,494.819v-34.71h9.184q1.217,0,2.476.077t2.452.235q1.194.155,2.309.376a16.941,16.941,0,0,1,2.05.531,17.719,17.719,0,0,1,4.9,2.386,14.686,14.686,0,0,1,3.567,3.556,15.407,15.407,0,0,1,2.18,4.579,19.445,19.445,0,0,1,.74,5.486,21.282,21.282,0,0,1-.623,5.253,15.563,15.563,0,0,1-1.894,4.475,14.213,14.213,0,0,1-3.2,3.567,16.515,16.515,0,0,1-4.579,2.529,24.289,24.289,0,0,1-5.007,1.245,43.137,43.137,0,0,1-6.3.417Zm8.975-5.318a20.265,20.265,0,0,0,8.716-1.53,9.419,9.419,0,0,0,4.2-3.995,13.931,13.931,0,0,0,1.427-6.695,14.56,14.56,0,0,0-.467-3.837,10.547,10.547,0,0,0-1.348-3.049,9.347,9.347,0,0,0-2.142-2.3,11.73,11.73,0,0,0-2.84-1.583,15,15,0,0,0-3.295-.83,29.03,29.03,0,0,0-4.072-.259h-2.8V489.5Z" transform="translate(-172.782 -424.252)" fill="#1e1e1e" stroke="#1e1e1e" stroke-miterlimit="10" stroke-width="0.25"/><path d="M272.937,467.179q2.515,3.658,3.527,5.24h.13q1.4-2.18,3.5-5.213l4.956-7.16h7.314l-12.088,17.069,12.608,17.641h-7.213L280.251,487q-2-2.853-3.683-5.4h-.1q-1.766,2.647-3.685,5.4l-5.42,7.757h-7.213l12.608-17.641-12.09-17.069h7.316Z" transform="translate(-156.404 -424.308)" fill="#1e1e1e" stroke="#1e1e1e" stroke-miterlimit="10" stroke-width="0.25"/><path d="M325.019,506.238l-2.649,3.719v10.511a2.819,2.819,0,0,1-2.816,2.816H213.334a2.819,2.819,0,0,1-2.816-2.816V449.457a2.819,2.819,0,0,1,2.816-2.816H271.11a8.853,8.853,0,0,1,6.34,3.441l6.5,9.995a14.3,14.3,0,0,0,11.063,6h24.542a2.819,2.819,0,0,1,2.816,2.816v7.733l2.649,3.719,2.983-3.48v-7.971a8.456,8.456,0,0,0-8.448-8.448H295.012a8.853,8.853,0,0,1-6.342-3.441l-6.5-9.993a14.29,14.29,0,0,0-11.061-6H213.334a8.458,8.458,0,0,0-8.448,8.448v71.011a8.458,8.458,0,0,0,8.448,8.448H319.555A8.457,8.457,0,0,0,328,520.468l.09-10.511Z" transform="translate(-204.886 -441.009)" fill="#00afcb"/></g></svg>