<svg xmlns="http://www.w3.org/2000/svg" width="61.552" height="47.046" viewBox="0 0 61.552 47.046"><g transform="translate(-452.184 -98.461)"><path d="M475.47,136.765H456.684a4.505,4.505,0,0,1-4.5-4.5v-29.3a4.5,4.5,0,0,1,4.5-4.5h48.377a4.5,4.5,0,0,1,4.5,4.5v3.618h-3v-3.618a1.5,1.5,0,0,0-1.5-1.5H456.684a1.5,1.5,0,0,0-1.5,1.5v29.3a1.5,1.5,0,0,0,1.5,1.5H475.47Z" fill="#0080c9"/><path d="M487.184,110.6h25.052v33.4H502.023" fill="#fff"/><path d="M509.236,145.507h-7.213v-3h7.213a1.5,1.5,0,0,0,1.5-1.5V113.6a1.5,1.5,0,0,0-1.5-1.5H487.184v-3h22.052a4.506,4.506,0,0,1,4.5,4.5v27.4A4.506,4.506,0,0,1,509.236,145.507Z" fill="#0080c9"/><rect width="15.801" height="25.432" rx="3" transform="translate(480.872 118.575)" fill="#fff"/><path d="M493.673,145.507h-9.8a4.505,4.505,0,0,1-4.5-4.5V121.575a4.505,4.505,0,0,1,4.5-4.5h9.8a4.506,4.506,0,0,1,4.5,4.5v19.432A4.505,4.505,0,0,1,493.673,145.507Zm-9.8-25.432a1.5,1.5,0,0,0-1.5,1.5v19.432a1.5,1.5,0,0,0,1.5,1.5h9.8a1.5,1.5,0,0,0,1.5-1.5V121.575a1.5,1.5,0,0,0-1.5-1.5Z" fill="#0080c9"/><path d="M475.087,144.007H464.619" fill="#fff"/><rect width="10.468" height="3" transform="translate(464.619 142.507)" fill="#0080c9"/></g></svg>