<svg xmlns="http://www.w3.org/2000/svg" width="32.3" height="57" viewBox="0 0 32.3 57"><g transform="translate(-339.422 -86.983)"><path d="M367.538,86.983H343.607a4.191,4.191,0,0,0-4.185,4.183V139.8a4.191,4.191,0,0,0,4.185,4.185h23.931a4.189,4.189,0,0,0,4.185-4.185V91.166a4.188,4.188,0,0,0-4.185-4.183Zm-26.213,7.6h28.5v36.1h-28.5Zm2.283-5.7h23.931a2.286,2.286,0,0,1,2.287,2.281v1.518h-28.5V91.166a2.286,2.286,0,0,1,2.283-2.281Zm23.931,53.2H343.607a2.286,2.286,0,0,1-2.283-2.283v-7.217h28.5V139.8a2.287,2.287,0,0,1-2.287,2.283Zm0,0" fill="#ce3334"/><path d="M357.931,142.413a3.8,3.8,0,1,0,3.8,3.8,3.8,3.8,0,0,0-3.8-3.8Zm0,5.7a1.9,1.9,0,1,1,1.9-1.9,1.9,1.9,0,0,1-1.9,1.9Zm0,0" transform="translate(-2.357 -8.88)" fill="#ce3334"/><path d="M353.951,92.276h3.8a.951.951,0,0,0,0-1.9h-3.8a.951.951,0,0,0,0,1.9Zm0,0" transform="translate(-2.175 -0.543)" fill="#ce3334"/><g transform="translate(357.472 89.83)"><path d="M361.866,92.276h.951a.951.951,0,0,0,0-1.9h-.951a.951.951,0,0,0,0,1.9Zm0,0" transform="translate(-360.915 -90.373)" fill="#ce3334"/></g></g></svg>