<?xml version="1.0" encoding="utf-8"?>
<!-- Generator: Adobe Illustrator 25.2.2, SVG Export Plug-In . SVG Version: 6.00 Build 0)  -->
<svg version="1.1" id="Ebene_1" xmlns="http://www.w3.org/2000/svg" xmlns:xlink="http://www.w3.org/1999/xlink" x="0px" y="0px"
	 viewBox="0 0 166.3 104.9" style="enable-background:new 0 0 166.3 104.9;" xml:space="preserve">
<style type="text/css">
	.st0{fill:#00AFCB;}
</style>
<g>
	<path class="st0" d="M77.2,84.1C51.1,84.1,30,63,30,36.9c0-4.8,0.7-9.4,2-13.7c-1.8,1.1-3.5,2.3-5.1,3.6v0c0,0,0,0,0,0c0,0,0,0,0,0
		c-0.1,0.1-0.2,0.1-0.3,0.2c-4.5,3.8-8.5,8.2-11.6,13.2l5.9,4.2c0.6-1,1.2-1.9,1.8-2.8c2.8,28.1,26.5,50.1,55.4,50.1
		c0.7,0,1.4,0,2.1,0V84C79.3,84.1,78.3,84.1,77.2,84.1"/>
	<g>
		<path class="st0" d="M36.4,21.3c-1.4,3.4-2.4,6.9-3,10.5c5.3-4,11.5-6.9,18.2-8.3v49.5H59V22.6c0.6,0,1.2,0,1.9,0
			c5.9,0,11.4,1,16.5,2.8v-8c-5-1.5-10.3-2.4-15.8-2.4C52.5,15,43.9,17.3,36.4,21.3z"/>
		<path class="st0" d="M143.8,59.9c-3.3,3.8-8,6.2-13.4,6.2c-7.5,0-14-4.7-16.5-11.4c-0.2-0.7-0.4-1.5-0.7-2.2
			c-0.4-1.4-0.5-2.9-0.5-4.4c0-9.9,8-18,17.8-18c5.1,0,9.8,2.2,13,5.8l5.4-5.4c-4.6-4.8-11-7.8-18.1-7.8c-11.1,0-20.4,7.2-23.7,17.3
			c-6.4-9.9-15.8-17.5-26.9-21.6l0,54.8h7.4V30.3c13.1,8.5,21.4,23.1,21.4,39.7c0,1,0,2-0.1,3.1h7.4c0-0.7,0-1.4,0-2.1
			c0-0.8,0-1.7-0.1-2.5c4.1,3,9.2,4.7,14.6,4.7c7.2,0,13.7-3.1,18.3-8L143.8,59.9z"/>
	</g>
</g>
</svg>
