<svg xmlns="http://www.w3.org/2000/svg" xmlns:xlink="http://www.w3.org/1999/xlink" id="Ebene_1" x="0" y="0" version="1.1" viewBox="0 0 100 100" xml:space="preserve" style="enable-background:new 0 0 100 100"><style type="text/css">.st0{stroke:#c01718;stroke-miterlimit:10}.st0,.st1{fill:#fff}</style><circle cx="50" cy="50" r="49.5" class="st0"/><g><g><path d="M80.9,80.9c-20.6,0-41.2,0-61.8,0c0-20.6,0-41.2,0-61.8c20.6,0,41.2,0,61.8,0C80.9,39.7,80.9,60.3,80.9,80.9z M51.4,76.8c4.1,0,8.2,0,12.3,0c8.2-0.1,14.6-6.4,14.7-14.6c0.1-8.1,0.1-16.2,0-24.4c-0.1-8.6-6.5-14.9-15.1-14.9 c-8.1,0-16.2,0-24.2,0c-8,0-14.5,6.6-14.5,14.6c0,8.2,0,16.3,0,24.5c0,8.2,6.5,14.7,14.7,14.7C43.2,76.8,47.3,76.8,51.4,76.8z" class="st1"/><path d="M51.4,76.8c-4.1,0-8.2,0-12.3,0c-8.2,0-14.7-6.5-14.7-14.7c0-8.2,0-16.3,0-24.5c0-8,6.5-14.6,14.5-14.6 c8.1,0,16.2,0,24.2,0c8.6,0,15,6.3,15.1,14.9c0.1,8.1,0.1,16.2,0,24.4c-0.1,8.2-6.5,14.5-14.7,14.6C59.5,76.8,55.4,76.8,51.4,76.8 z M40.5,50.5c0,0.2,0,0.7,0.1,1.3c0.5,4,3.1,6.5,6.9,6.6c3.9,0.1,6.8-2.1,7.3-6c0.3-1.8,0.1-3.8-0.4-5.6c-0.7-2.9-2.9-4.4-5.9-4.7 C43.6,41.7,40.5,44.9,40.5,50.5z M69,46.5c0.2-2.3-2.4-4.5-5.5-4.4c-3.2,0-5.4,1.7-5.6,4.2c-0.2,2.2,0.8,3.8,3.1,4.5 c1.5,0.5,3,0.7,4.4,1.3c1.6,0.6,1.9,2.1,0.9,3.2c-1.3,1.4-4.9,1.3-5.9-0.3c-0.8-1.3-1.7-1.2-2.8-0.9c0.1,2.5,2.1,4.2,5.1,4.4 c3.4,0.2,6-1.3,6.5-3.8c0.5-2.4-0.5-4.2-3-5c-1.5-0.5-3.1-0.8-4.6-1.4C60.3,47.6,60,46.1,61,45c1.3-1.2,4.4-1.1,5.2,0.4 C67,46.7,67.9,46.6,69,46.5z M36,57.9c0-3.9,0-7.7,0-11.5c-2.1-0.4-2.3-0.3-2.3,1.6c0,2.7,0,5.4,0,8.2 C33.8,58.1,33.8,58.1,36,57.9z M34.6,44.4c0.2,0,0.4,0,0.6,0c0.4-0.5,1.1-1,1.2-1.6c0.2-0.9-0.5-1.4-1.4-1.5 c-0.9,0-1.6,0.5-1.5,1.3C33.6,43.3,34.2,43.9,34.6,44.4z"/><path d="M40.5,50.5c0-5.7,3.2-8.9,8-8.4c2.9,0.3,5.1,1.8,5.9,4.7c0.5,1.8,0.6,3.8,0.4,5.6c-0.6,3.9-3.5,6.1-7.3,6 c-3.8-0.1-6.4-2.6-6.9-6.6C40.5,51.2,40.5,50.7,40.5,50.5z M52.6,50.2c-0.2-1-0.4-2-0.7-3c-0.6-1.9-2.1-2.8-4-2.9 c-1.9-0.1-3.4,0.8-4.2,2.6c-1,2.2-1,4.5,0.1,6.7c0.7,1.5,1.9,2.3,3.5,2.4C50.4,56.3,52.5,54,52.6,50.2z" class="st1"/><path d="M69,46.5c-1.2,0.1-2.1,0.3-2.8-1c-0.8-1.5-4-1.6-5.2-0.4c-1.1,1-0.8,2.6,0.7,3.2c1.5,0.6,3.1,0.9,4.6,1.4 c2.5,0.8,3.5,2.6,3,5c-0.5,2.5-3.1,4-6.5,3.8c-3-0.2-5-1.9-5.1-4.4c1.1-0.2,2-0.4,2.8,0.9c1,1.7,4.5,1.7,5.9,0.3 c1.1-1.1,0.7-2.6-0.9-3.2c-1.4-0.5-3-0.8-4.4-1.3c-2.3-0.7-3.3-2.3-3.1-4.5c0.2-2.5,2.5-4.1,5.6-4.2C66.7,42,69.2,44.1,69,46.5z" class="st1"/><path d="M36,57.9c-2.2,0.2-2.3,0.2-2.3-1.8c0-2.7,0-5.4,0-8.2c0-1.9,0.1-2,2.3-1.6C36,50.2,36,54,36,57.9z" class="st1"/><path d="M34.6,44.4c-0.4-0.6-1-1.1-1.1-1.7c-0.1-0.9,0.6-1.4,1.5-1.3c0.9,0,1.6,0.6,1.4,1.5c-0.1,0.6-0.8,1.1-1.2,1.6 C35,44.4,34.8,44.4,34.6,44.4z" class="st1"/><path d="M52.6,50.2c-0.1,3.8-2.2,6.1-5.4,5.8c-1.6-0.2-2.9-1-3.5-2.4c-1-2.2-1-4.5-0.1-6.7c0.8-1.8,2.3-2.6,4.2-2.6 c1.9,0.1,3.4,1,4,2.9C52.3,48.2,52.4,49.2,52.6,50.2z"/></g></g></svg>