<?xml version="1.0" encoding="utf-8"?>
<!-- Generator: Adobe Illustrator 25.0.1, SVG Export Plug-In . SVG Version: 6.00 Build 0)  -->
<svg version="1.1" id="Ebene_1" xmlns="http://www.w3.org/2000/svg" xmlns:xlink="http://www.w3.org/1999/xlink" x="0px" y="0px"
	 viewBox="0 0 100 100" style="enable-background:new 0 0 100 100;" xml:space="preserve">
<style type="text/css">
	.st0{fill:#FFFFFF;stroke:#C01718;stroke-miterlimit:10;}
	.st1{fill:none;}
	.st2{fill:#272828;}
</style>
<circle class="st0" cx="50" cy="50" r="49.5"/>
<g>
	<rect x="20.9" y="10.6" class="st1" width="58.3" height="58.3"/>
	<path class="st2" d="M63.6,33.6l4.5-7.7c0.4-0.8,0.1-1.7-0.6-2.1c-0.7-0.4-1.6-0.1-2,0.5l-4.6,7.9c-6.9-2.9-14.8-2.9-21.7,0
		l-4.6-7.9c-0.5-0.7-1.4-0.9-2.1-0.5c-0.7,0.4-0.9,1.3-0.5,2l4.5,7.7c-7.5,4.3-12.4,12-13.1,20.7h53.4C76,45.7,71.1,37.9,63.6,33.6z
		 M37.9,47.7c-1.7,0-3-1.4-3-3s1.4-3,3-3c1.7,0,3,1.4,3,3S39.5,47.7,37.9,47.7z M62.1,47.7c-1.7,0-3-1.4-3-3s1.4-3,3-3s3,1.4,3,3
		S63.8,47.7,62.1,47.7z"/>
</g>
</svg>
