<?xml version="1.0" encoding="utf-8"?>
<!-- Generator: Adobe Illustrator 25.2.0, SVG Export Plug-In . SVG Version: 6.00 Build 0)  -->
<svg version="1.1" id="Ebene_1" xmlns="http://www.w3.org/2000/svg" xmlns:xlink="http://www.w3.org/1999/xlink" x="0px" y="0px"
	 viewBox="0 0 100 100" style="enable-background:new 0 0 100 100;" xml:space="preserve">
<style type="text/css">
	.st0{fill:none;stroke:#0080C9;stroke-miterlimit:10;}
	.st1{fill:none;stroke:#0080C9;stroke-width:3;stroke-miterlimit:10;}
</style>
<g>
	<circle class="st0" cx="50" cy="50" r="49"/>
	<g>
		<g>
			<path class="st1" d="M42.7,62.9H24.5c-1.6,0-3-1.3-3-3V31.6c0-1.6,1.4-3,3-3h46.9c1.7,0,3,1.4,3,3V35"/>
		</g>
		<g>
			<path class="st1" d="M54.1,38.9h21.4c1.7,0,3,1.4,3,3v26.5c0,1.7-1.3,3-3,3h-6.9"/>
			<path class="st1" d="M54.1,38.9h21.4c1.7,0,3,1.4,3,3v26.5c0,1.7-1.3,3-3,3h-6.9"/>
		</g>
		<g>
			<path class="st1" d="M63.3,68.4c0,1.7-1.3,3-3,3H51c-1.7,0-3-1.3-3-3V49.7c0-1.7,1.3-3,3-3h9.4c1.7,0,3,1.3,3,3v18.7H63.3z"/>
			<path class="st1" d="M63.3,68.4c0,1.7-1.3,3-3,3H51c-1.7,0-3-1.3-3-3V49.7c0-1.7,1.3-3,3-3h9.4c1.7,0,3,1.3,3,3v18.7H63.3z"/>
		</g>
		<path class="st1" d="M42.3,71.4c-5.5,0-10.2,0-10.2,0"/>
	</g>
</g>
</svg>
