<?xml version="1.0" encoding="utf-8"?>
<!-- Generator: Adobe Illustrator 25.2.0, SVG Export Plug-In . SVG Version: 6.00 Build 0)  -->
<svg version="1.1" id="Ebene_1" xmlns="http://www.w3.org/2000/svg" xmlns:xlink="http://www.w3.org/1999/xlink" x="0px" y="0px"
	 viewBox="0 0 100 100" style="enable-background:new 0 0 100 100;" xml:space="preserve">
<style type="text/css">
	.st0{fill:#FFFFFF;stroke:#0080C9;stroke-miterlimit:10;}
	.st1{fill:#0080C9;}
	.st2{fill:#0080C9;stroke:#0080C9;stroke-width:0.25;stroke-miterlimit:10;}
	.st3{fill:#575756;stroke:#575756;stroke-width:0.25;stroke-miterlimit:10;}
	.st4{fill:#FFFFFF;stroke:#1D1D1B;stroke-width:0.25;stroke-miterlimit:10;}
	.st5{fill:#FFFFFF;stroke:#0080C9;stroke-width:3;stroke-miterlimit:10;}
</style>
<g>
	<circle class="st0" cx="50" cy="50" r="49"/>
	<g>
		<path class="st1" d="M50.1,51H35.6l1.7-4.3c1.7-4.3,3.5-9.1,5.4-14.3l-2.6-6.7l-18,44.2h6L33.6,56H52L50.1,51z"/>
		<rect x="66.3" y="29.6" class="st2" width="11.5" height="11.5"/>
		<rect x="66.3" y="43.6" class="st3" width="11.5" height="11.5"/>
		<rect x="66.3" y="58" class="st4" width="11.5" height="11.5"/>
		<path class="st5" d="M61.6,31.4c-8.2,0-15.2,0-15.2,0"/>
		<path class="st5" d="M61.6,37c-6.2,0-11.5,0-11.5,0"/>
		<path class="st5" d="M61.6,42.7c-4.6,0-8.6,0-8.6,0"/>
	</g>
</g>
</svg>
