<?xml version="1.0" encoding="utf-8"?>
<!-- Generator: Adobe Illustrator 25.0.1, SVG Export Plug-In . SVG Version: 6.00 Build 0)  -->
<svg version="1.1" id="Ebene_1" xmlns="http://www.w3.org/2000/svg" xmlns:xlink="http://www.w3.org/1999/xlink" x="0px" y="0px"
	 viewBox="0 0 100 100" style="enable-background:new 0 0 100 100;" xml:space="preserve">
<style type="text/css">
	.st0{fill:#FFFFFF;stroke:#C01718;stroke-miterlimit:10;}
	.st1{fill:#C01718;}
</style>
<circle class="st0" cx="50" cy="50" r="49.5"/>
<g>
	<path class="st1" d="M64,16.7H36c-2.7,0-4.9,2.2-4.9,4.9v56.9c0,2.7,2.2,4.9,4.9,4.9h28c2.7,0,4.9-2.2,4.9-4.9V21.6
		C68.9,18.9,66.7,16.7,64,16.7L64,16.7z M33.3,25.6h33.3v42.2H33.3V25.6z M36,18.9h28c1.5,0,2.7,1.2,2.7,2.7v1.8H33.3v-1.8
		C33.3,20.1,34.5,18.9,36,18.9L36,18.9z M64,81.1H36c-1.5,0-2.7-1.2-2.7-2.7V70h33.3v8.4C66.7,79.9,65.5,81.1,64,81.1L64,81.1z
		 M64,81.1"/>
	<path class="st1" d="M50,71.1c-2.5,0-4.4,2-4.4,4.4c0,2.5,2,4.4,4.4,4.4c2.5,0,4.4-2,4.4-4.4C54.4,73.1,52.5,71.1,50,71.1L50,71.1z
		 M50,77.8c-1.2,0-2.2-1-2.2-2.2c0-1.2,1-2.2,2.2-2.2c1.2,0,2.2,1,2.2,2.2C52.2,76.8,51.2,77.8,50,77.8L50,77.8z M50,77.8"/>
	<path class="st1" d="M45.6,22.2H50c0.6,0,1.1-0.5,1.1-1.1c0-0.6-0.5-1.1-1.1-1.1h-4.4c-0.6,0-1.1,0.5-1.1,1.1
		C44.4,21.7,44.9,22.2,45.6,22.2L45.6,22.2z M45.6,22.2"/>
	<g>
		<path class="st1" d="M53.3,22.2h1.1c0.6,0,1.1-0.5,1.1-1.1c0-0.6-0.5-1.1-1.1-1.1h-1.1c-0.6,0-1.1,0.5-1.1,1.1
			C52.2,21.7,52.7,22.2,53.3,22.2L53.3,22.2z M53.3,22.2"/>
	</g>
</g>
</svg>
