<svg xmlns="http://www.w3.org/2000/svg" xmlns:xlink="http://www.w3.org/1999/xlink" id="Ebene_1" x="0" y="0" version="1.1" viewBox="0 0 246.3 104.9" xml:space="preserve" style="enable-background:new 0 0 246.3 104.9"><style type="text/css">.st0{fill:#fff}</style><g><path d="M47.1,51.4v-43h8.2v43H47.1z" class="st0"/><path d="M115.6,28.4c3.1,4.4,5.6,8.3,7.5,11.7h0.2c-0.3-5.6-0.4-9.7-0.4-12.2V8.4h7.9v43h-8.3l-14-19.8 c-2.5-3.4-5-7.4-7.7-11.9h-0.2c0.3,5.3,0.4,9.4,0.4,12.3v19.5h-7.9v-43h8.3L115.6,28.4z" class="st0"/><path d="M26.8,86c0.8-2.3,1.4-4,1.7-5c0.4-1,1.1-3,2.2-6.1l8-21.4h8.3l-16.8,43h-7.1l-16.8-43h8.4l8,21.4 C23.9,78,24.6,80,25,81c0.4,1,0.9,2.7,1.7,5H26.8z" class="st0"/><path d="M70.5,85.6H54.3l-4.2,11h-8.4l17.5-43h6.8l17.1,43h-8.3L70.5,85.6z M62.3,63.9c-1.5,4.5-2.8,8.3-4,11.3 L56.8,79h11.1l-1.5-3.8c-1.2-3-2.5-6.8-4-11.3H62.3z" class="st0"/><path d="M101,96.6h-7.9V60.1H79.2v-6.6h35.6v6.6H101V96.6z" class="st0"/><path d="M122.9,96.6v-43h7.9v43H122.9z" class="st0"/><path d="M222.4,73.5c3.1,4.4,5.6,8.3,7.5,11.7h0.2c-0.3-5.6-0.4-9.7-0.4-12.2V53.5h7.9v43h-8.3l-14-19.8 c-2.5-3.4-5-7.4-7.7-11.9h-0.2c0.3,5.3,0.4,9.4,0.4,12.3v19.5H200v-43h8.3L222.4,73.5z" class="st0"/><g><path d="M84.9,40.1h0.2c-0.3-5.6-0.4-9.7-0.4-12.2V8.4h-21l13.8,20C80.6,32.8,83,36.7,84.9,40.1z" class="st0"/><path d="M63.2,19.6H63c0.3,5.3,0.4,9.4,0.4,12.3v19.5h21L70.6,31.6C68.2,28.1,65.7,24.2,63.2,19.6z" class="st0"/></g><path d="M180.6,46l-9.6,4.2c8.7,2.4,15.1,10.3,15.1,19.8c0,11.4-9.2,20.6-20.6,20.6c-11.4,0-20.6-9.2-20.6-20.6 c0-3.3,0.8-6.4,2.2-9.2l-9.6,4.4c-0.3,1.6-0.4,3.2-0.4,4.8c0,15.7,12.7,28.4,28.4,28.4s28.4-12.7,28.4-28.4 C193.9,59.9,188.6,51,180.6,46z" class="st0"/><path d="M165.4,6.6c-15.7,0-28.4,12.7-28.4,28.4c0,10.3,5.5,19.3,13.7,24.3l9.7-4.3c-8.9-2.2-15.6-10.3-15.6-19.9 c0-11.4,9.2-20.6,20.6-20.6S186,23.6,186,35c0,3.3-0.8,6.4-2.2,9.2l9.6-4.4c0.3-1.6,0.4-3.2,0.4-4.8 C193.8,19.3,181.1,6.6,165.4,6.6z" class="st0"/></g></svg>