<svg xmlns="http://www.w3.org/2000/svg" width="283.464" height="141.732" viewBox="0 0 283.464 141.732"><g transform="translate(-279.213 -226.772)"><path d="M289.738,359.053q1.884,2.712,3.723,5.576h.092q-.2-2.986-.2-6.1V347.627h2.512v20.494h-2.5L285.326,356.7q-2.083-2.988-3.723-5.576h-.092q.2,2.8.2,6.541v10.461h-2.5V347.627h2.481Z" fill="#0a0000"/><path d="M303.557,365.869h10.511v2.252H301.06V347.627H313.5v2.252h-9.944v6.616h8.84v2.252h-8.84Z" fill="#0a0000"/><path d="M329.5,351.012q-.244,1.41-1.145,4.932l-3.177,12.177h-2.535l-6.28-20.494h2.5l3.523,12.024q.842,2.895,1.433,5.208h.061q.3-1.425.663-2.773t.633-2.4l3.11-12.054h2.5l3.094,12.054q1.137,4.352,1.289,5.178h.062q.531-2.145,1.436-5.208l3.526-12.024h2.5L336.4,368.121h-2.532L330.7,355.944q-.867-3.4-1.141-4.932Z" fill="#0a0000"/><path d="M367.283,359.835H362.61v-2.252h7.17v9.91a5.152,5.152,0,0,1-.942.344q-.62.177-1.417.33t-1.708.245a18.03,18.03,0,0,1-1.8.092,13.792,13.792,0,0,1-4.65-.72,9.278,9.278,0,0,1-3.378-2.037,8.542,8.542,0,0,1-2.068-3.2,11.9,11.9,0,0,1-.705-4.2,12.9,12.9,0,0,1,.772-4.565,9.668,9.668,0,0,1,2.237-3.507,9.988,9.988,0,0,1,3.541-2.244,12.774,12.774,0,0,1,4.573-.789q.675,0,1.349.054t1.287.153c.408.067.786.145,1.133.237a6.253,6.253,0,0,1,.873.291v2.206a14.642,14.642,0,0,0-2.114-.513,13.969,13.969,0,0,0-2.39-.207,10.45,10.45,0,0,0-3.332.529,7.949,7.949,0,0,0-2.8,1.6,7.744,7.744,0,0,0-1.931,2.688,9.25,9.25,0,0,0-.72,3.791,10.177,10.177,0,0,0,.6,3.676,6.693,6.693,0,0,0,1.692,2.558,6.818,6.818,0,0,0,2.655,1.494,11.731,11.731,0,0,0,3.47.482,16.538,16.538,0,0,0,1.746-.092,11.128,11.128,0,0,0,1.529-.26Z" fill="#0a0000"/><path d="M378.275,347.627v18.242h10v2.252h-12.5V347.627Z" fill="#0a0000"/><path d="M409.208,357.889a13.068,13.068,0,0,1-.669,4.274,9.805,9.805,0,0,1-1.915,3.354,8.736,8.736,0,0,1-3,2.2,9.479,9.479,0,0,1-3.929.789,9.83,9.83,0,0,1-4.027-.789,8.527,8.527,0,0,1-3.01-2.2,9.746,9.746,0,0,1-1.885-3.354,13.369,13.369,0,0,1-.653-4.274,13.051,13.051,0,0,1,.676-4.3,9.962,9.962,0,0,1,1.916-3.362,8.643,8.643,0,0,1,3-2.2,9.571,9.571,0,0,1,3.952-.789,9.736,9.736,0,0,1,4,.789,8.558,8.558,0,0,1,3,2.2,9.736,9.736,0,0,1,1.884,3.362A13.461,13.461,0,0,1,409.208,357.889Zm-2.482,0a11.218,11.218,0,0,0-.542-3.645,7.55,7.55,0,0,0-1.495-2.635,6.256,6.256,0,0,0-2.246-1.6,7.378,7.378,0,0,0-5.561,0,6.252,6.252,0,0,0-2.245,1.6,7.55,7.55,0,0,0-1.495,2.635,11.219,11.219,0,0,0-.542,3.645,10.983,10.983,0,0,0,.55,3.638,7.632,7.632,0,0,0,1.5,2.627,6.165,6.165,0,0,0,2.246,1.593,7.235,7.235,0,0,0,2.8.536,7.084,7.084,0,0,0,2.765-.536,6.193,6.193,0,0,0,2.23-1.593,7.557,7.557,0,0,0,1.495-2.627A11.149,11.149,0,0,0,406.726,357.889Z" fill="#0a0000"/><path d="M423.762,357.522a5.813,5.813,0,0,1,1.709.505,4.449,4.449,0,0,1,1.3.942,3.942,3.942,0,0,1,.835,1.363,5.184,5.184,0,0,1,.291,1.8,5.829,5.829,0,0,1-.212,1.509,5.211,5.211,0,0,1-.705,1.531,5.911,5.911,0,0,1-1.288,1.371,6.531,6.531,0,0,1-1.978,1.027A9.6,9.6,0,0,1,421.7,368a24.445,24.445,0,0,1-2.652.123H413.8V347.627h5.059q.7,0,1.264.023t1.045.069c.318.031.614.069.886.115s.53.1.773.161a7.236,7.236,0,0,1,1.734.712,5.16,5.16,0,0,1,1.325,1.08,4.587,4.587,0,0,1,.841,1.424,4.961,4.961,0,0,1,.3,1.731,5.814,5.814,0,0,1-.176,1.44,4.1,4.1,0,0,1-.567,1.271,4.256,4.256,0,0,1-1.011,1.042,5.574,5.574,0,0,1-1.51.765Zm-3.661-1.027a10.357,10.357,0,0,0,1.272-.068,5.512,5.512,0,0,0,.965-.207,3.065,3.065,0,0,0,1.677-1.2,3.424,3.424,0,0,0,.529-1.915,2.961,2.961,0,0,0-.552-1.853,3.277,3.277,0,0,0-1.731-1.072,7.318,7.318,0,0,0-1.348-.238q-.766-.067-1.808-.068h-2.8v6.616Zm-3.8,2.252v7.122h3.019a18.4,18.4,0,0,0,1.991-.1,7.556,7.556,0,0,0,1.563-.314,4.205,4.205,0,0,0,1.2-.59,3.322,3.322,0,0,0,.789-.8,3,3,0,0,0,.429-.927,3.857,3.857,0,0,0,.13-1,4.211,4.211,0,0,0-.138-1.1,2.588,2.588,0,0,0-.451-.919,2.942,2.942,0,0,0-.828-.712,4.322,4.322,0,0,0-1.279-.475,7.185,7.185,0,0,0-1.05-.153q-.589-.047-1.463-.046Z" fill="#0a0000"/><path d="M434.916,365.869h10.511v2.252H432.419V347.627H444.86v2.252h-9.944v6.616h8.84v2.252h-8.84Z" fill="#0a0000"/><path d="M465.9,349.465a9.37,9.37,0,0,0-3.219.544,7.149,7.149,0,0,0-2.6,1.623,7.656,7.656,0,0,0-1.737,2.681,10.057,10.057,0,0,0-.636,3.729,10.335,10.335,0,0,0,.589,3.669,6.536,6.536,0,0,0,4.288,4.082,11.1,11.1,0,0,0,3.4.49q.512,0,1.085-.053t1.155-.154q.582-.1,1.133-.23a9.437,9.437,0,0,0,.984-.283v2.206a10.281,10.281,0,0,1-2.1.544,15.555,15.555,0,0,1-2.452.191,13.362,13.362,0,0,1-4.535-.712,8.926,8.926,0,0,1-3.317-2.045,8.61,8.61,0,0,1-2.03-3.255,13.876,13.876,0,0,1,.039-8.754,9.736,9.736,0,0,1,2.1-3.446,9.535,9.535,0,0,1,3.324-2.244,11.439,11.439,0,0,1,4.39-.8q.643,0,1.271.054t1.2.153a10.858,10.858,0,0,1,1.065.237,6.673,6.673,0,0,1,.842.291v2.206a15.929,15.929,0,0,0-2.032-.513A11.976,11.976,0,0,0,465.9,349.465Z" fill="#0a0000"/><path d="M476.987,365.869H487.5v2.252H474.49V347.627h12.441v2.252h-9.944v6.616h8.841v2.252h-8.841Z" fill="#0a0000"/><path d="M502.313,359.053q1.884,2.712,3.723,5.576h.092q-.2-2.986-.2-6.1V347.627h2.512v20.494h-2.5L497.9,356.7q-2.084-2.988-3.723-5.576h-.092q.2,2.8.2,6.541v10.461h-2.5V347.627h2.481Z" fill="#0a0000"/><path d="M520.989,368.121h-2.5V349.879h-6.849v-2.252h16.2v2.252h-6.849Z" fill="#0a0000"/><path d="M533.552,365.869h10.51v2.252H531.055V347.627h12.44v2.252h-9.943v6.616h8.84v2.252h-8.84Z" fill="#0a0000"/><path d="M550.849,359.635v8.486h-2.5V347.627h5.311a22.037,22.037,0,0,1,2.287.1,10.742,10.742,0,0,1,1.722.314,6.125,6.125,0,0,1,3.275,1.983,5.389,5.389,0,0,1,1.133,3.5,5.847,5.847,0,0,1-.4,2.221,5.08,5.08,0,0,1-1.118,1.7,5.889,5.889,0,0,1-1.724,1.18,9.075,9.075,0,0,1-2.229.673v.062l6.067,8.761h-2.5l-6.312-8.486Zm0-9.756v7.505h2.467q1.149,0,1.961-.077a7.222,7.222,0,0,0,1.456-.275,4,4,0,0,0,2.007-1.272,3.524,3.524,0,0,0,.7-2.282,3.3,3.3,0,0,0-.674-2.121,3.65,3.65,0,0,0-1.823-1.157,6.943,6.943,0,0,0-1.317-.245q-.766-.076-1.946-.076Z" fill="#0a0000"/><path d="M527.853,325.379a49.3,49.3,0,1,1,33.765-85.2l.625.59-8.268,8.361-.6-.556a37.543,37.543,0,1,0,.258,54.751l.582-.551,8.458,8.17-.627.6A49.764,49.764,0,0,1,527.853,325.379Z" fill="#0a0000"/><path d="M425.985,325.378a49.3,49.3,0,1,1,33.765-85.195l.625.589-8.267,8.362-.6-.556a37.544,37.544,0,1,0,.257,54.751l.583-.551,8.458,8.17-.628.6A49.763,49.763,0,0,1,425.985,325.378Z" fill="#0a0000"/><path d="M291.285,324.194H279.213V227.378l9.4.04.251.311,59.256,73.5V227.354h12.2v96.81h-9.949l-.252-.313L291.285,250.9Z" fill="#0a0000"/><path d="M425.53,276.922l12.165,11.732h25.673V276.922Z" fill="#0a0000"/></g></svg>