<?xml version="1.0" encoding="utf-8"?>
<!-- Generator: Adobe Illustrator 25.3.1, SVG Export Plug-In . SVG Version: 6.00 Build 0)  -->
<svg version="1.1" id="Capa_1" xmlns="http://www.w3.org/2000/svg" xmlns:xlink="http://www.w3.org/1999/xlink" x="0px" y="0px"
	 viewBox="0 0 150 100" style="enable-background:new 0 0 150 100;" xml:space="preserve">
<style type="text/css">
	.st0{fill:#F0F0F0;}
	.st1{fill:#D80027;}
	.st2{fill:#0052B4;}
</style>
<rect class="st0" width="150" height="100"/>
<polygon class="st1" points="84.4,0 65.6,0 65.6,40.6 0,40.6 0,59.4 65.6,59.4 65.6,100 84.4,100 84.4,59.4 150,59.4 150,40.6 
	84.4,40.6 "/>
<g>
	<polygon class="st2" points="115.4,67.4 150,86.6 150,67.4 	"/>
	<polygon class="st2" points="91.3,67.4 150,100 150,90.8 107.9,67.4 	"/>
	<polygon class="st2" points="134.4,100 91.3,76.1 91.3,100 	"/>
</g>
<polygon class="st0" points="91.3,67.4 150,100 150,90.8 107.9,67.4 "/>
<polygon class="st1" points="91.3,67.4 150,100 150,90.8 107.9,67.4 "/>
<g>
	<polygon class="st2" points="26.5,67.4 0,82.1 0,67.4 	"/>
	<polygon class="st2" points="58.7,71.5 58.7,100 7.5,100 	"/>
</g>
<polygon class="st1" points="42.1,67.4 0,90.8 0,100 0,100 58.7,67.4 "/>
<g>
	<polygon class="st2" points="34.6,32.6 0,13.4 0,32.6 	"/>
	<polygon class="st2" points="58.7,32.6 0,0 0,9.2 42.1,32.6 	"/>
	<polygon class="st2" points="15.6,0 58.7,23.9 58.7,0 	"/>
</g>
<polygon class="st0" points="58.7,32.6 0,0 0,9.2 42.1,32.6 "/>
<polygon class="st1" points="58.7,32.6 0,0 0,9.2 42.1,32.6 "/>
<g>
	<polygon class="st2" points="123.5,32.6 150,17.9 150,32.6 	"/>
	<polygon class="st2" points="91.3,28.4 91.3,0 142.5,0 	"/>
</g>
<polygon class="st1" points="107.9,32.6 150,9.2 150,0 150,0 91.3,32.6 "/>
</svg>
