<svg xmlns="http://www.w3.org/2000/svg" width="425.197" height="119.055" viewBox="0 0 425.197 119.055"><g transform="translate(-208.346 -238.11)"><path d="M372.579,270.311a17.892,17.892,0,0,1-.639,4.859,13.229,13.229,0,0,1-1.931,4.1,12.733,12.733,0,0,1-3.222,3.147,15.223,15.223,0,0,1-4.512,2.054,18.082,18.082,0,0,1-3.2.585q-1.722.165-3.729.166h-6.686V255.67h6.752q2.007,0,3.729.166a17.974,17.974,0,0,1,3.2.585,15.555,15.555,0,0,1,4.512,2.032,12.39,12.39,0,0,1,3.2,3.08,12.843,12.843,0,0,1,1.9,4A17.451,17.451,0,0,1,372.579,270.311Zm-3.574,0a11.691,11.691,0,0,0-1.879-6.912,10.062,10.062,0,0,0-5.388-3.754,14.566,14.566,0,0,0-3-.574q-1.654-.155-3.734-.155h-2.75v23.055h2.75q2.079,0,3.734-.154a14.564,14.564,0,0,0,3-.575,9.846,9.846,0,0,0,5.388-3.864A12.3,12.3,0,0,0,369.005,270.311Z" fill="#0a0000"/><path d="M380.334,285.218V255.67h3.6v29.548Z" fill="#0a0000"/><path d="M412.094,273.27h-6.73v-3.246h10.327v14.288a7.439,7.439,0,0,1-1.358.5q-.893.255-2.041.475t-2.459.353a25.631,25.631,0,0,1-2.593.133,19.844,19.844,0,0,1-6.7-1.038,13.358,13.358,0,0,1-4.865-2.937,12.324,12.324,0,0,1-2.979-4.616,17.192,17.192,0,0,1-1.015-6.051,18.585,18.585,0,0,1,1.112-6.58,13.925,13.925,0,0,1,3.222-5.057,14.376,14.376,0,0,1,5.1-3.236,18.386,18.386,0,0,1,6.586-1.137q.971,0,1.942.078t1.853.22q.882.144,1.633.343a8.951,8.951,0,0,1,1.258.419v3.18a21.123,21.123,0,0,0-3.045-.74,20.215,20.215,0,0,0-3.442-.3,15.059,15.059,0,0,0-4.8.762,11.473,11.473,0,0,0-4.027,2.308,11.144,11.144,0,0,0-2.78,3.876,13.332,13.332,0,0,0-1.037,5.465,14.732,14.732,0,0,0,.86,5.3,9.684,9.684,0,0,0,2.437,3.688,9.832,9.832,0,0,0,3.823,2.153,16.847,16.847,0,0,0,5,.7,23.772,23.772,0,0,0,2.515-.133,15.935,15.935,0,0,0,2.2-.375Z" fill="#0a0000"/><path d="M424.328,285.218V255.67h3.6v29.548Z" fill="#0a0000"/><path d="M447.373,285.218h-3.6v-26.3h-9.863V255.67h23.323v3.246h-9.863Z" fill="#0a0000"/><path d="M456.464,285.218l12.025-29.548H471.6l12.025,29.548h-3.906l-3.525-8.9H463.85l-3.525,8.9Zm13.547-24.954q-1.975,5.516-3.773,10.025l-1.1,2.783h9.785l-1.119-2.78q-1.816-4.59-3.7-10.028Z" fill="#0a0000"/><path d="M491.745,255.67v26.3h14.408v3.247H488.148V255.67Z" fill="#0a0000"/><path d="M400.426,300.038a4.015,4.015,0,0,0,.528,2.153,4.317,4.317,0,0,0,1.419,1.4,8.6,8.6,0,0,0,2.068.9q1.178.354,2.454.663,1.715.419,3.377.927a10.67,10.67,0,0,1,2.959,1.4,6.817,6.817,0,0,1,2.1,2.329,7.493,7.493,0,0,1,.8,3.688,8.459,8.459,0,0,1-.87,3.964,7.557,7.557,0,0,1-2.4,2.739,10.838,10.838,0,0,1-3.631,1.59,19.141,19.141,0,0,1-4.59.518,19.942,19.942,0,0,1-2.349-.143q-1.2-.144-2.295-.386a17.272,17.272,0,0,1-1.975-.553,7.517,7.517,0,0,1-1.39-.618v-3.291a13.506,13.506,0,0,0,1.787.729,20.065,20.065,0,0,0,2.052.564q1.059.231,2.14.364a16.807,16.807,0,0,0,2.03.132,15.8,15.8,0,0,0,2.946-.265,7.657,7.657,0,0,0,2.46-.883,4.56,4.56,0,0,0,1.677-1.689,5.306,5.306,0,0,0,.618-2.684,4.043,4.043,0,0,0-.541-2.186,4.451,4.451,0,0,0-1.445-1.424,8.537,8.537,0,0,0-2.085-.916q-1.18-.354-2.482-.663-1.722-.4-3.365-.895a10.571,10.571,0,0,1-2.935-1.38,6.692,6.692,0,0,1-2.074-2.274,7.194,7.194,0,0,1-.783-3.556,8.473,8.473,0,0,1,.823-3.875,7.626,7.626,0,0,1,2.228-2.683,9.559,9.559,0,0,1,3.237-1.568,14.544,14.544,0,0,1,3.906-.508,20.364,20.364,0,0,1,4.4.452,21.125,21.125,0,0,1,3.739,1.182v3.335a25.519,25.519,0,0,0-3.784-1.259,18.018,18.018,0,0,0-4.181-.508,10.344,10.344,0,0,0-2.912.364,5.726,5.726,0,0,0-2.052,1.038,4.142,4.142,0,0,0-1.214,1.634A5.526,5.526,0,0,0,400.426,300.038Z" fill="#0a0000"/><path d="M449.558,307.017a18.861,18.861,0,0,1-.964,6.161,14.135,14.135,0,0,1-2.758,4.836,12.573,12.573,0,0,1-4.323,3.169,13.644,13.644,0,0,1-5.658,1.137,14.157,14.157,0,0,1-5.8-1.137,12.27,12.27,0,0,1-4.333-3.169,14.05,14.05,0,0,1-2.715-4.836,19.273,19.273,0,0,1-.941-6.161,18.826,18.826,0,0,1,.974-6.2,14.36,14.36,0,0,1,2.758-4.847,12.457,12.457,0,0,1,4.323-3.169,13.778,13.778,0,0,1,5.691-1.137,14.022,14.022,0,0,1,5.768,1.137,12.329,12.329,0,0,1,4.323,3.169,14.044,14.044,0,0,1,2.714,4.847A19.428,19.428,0,0,1,449.558,307.017Zm-3.575,0a16.158,16.158,0,0,0-.781-5.256,10.862,10.862,0,0,0-2.152-3.8,9,9,0,0,0-3.235-2.308,10.617,10.617,0,0,0-8.008,0,8.99,8.99,0,0,0-3.234,2.308,10.848,10.848,0,0,0-2.153,3.8,16.186,16.186,0,0,0-.78,5.256,15.862,15.862,0,0,0,.791,5.244,11.025,11.025,0,0,0,2.164,3.788,8.887,8.887,0,0,0,3.234,2.3,10.39,10.39,0,0,0,4.027.773,10.169,10.169,0,0,0,3.982-.773,8.953,8.953,0,0,0,3.212-2.3,10.878,10.878,0,0,0,2.152-3.788A16.057,16.057,0,0,0,445.983,307.017Z" fill="#0a0000"/><path d="M460.451,292.221v26.3h14.408v3.246h-18V292.221Z" fill="#0a0000"/><path d="M491.783,319.118a9.931,9.931,0,0,0,2.857-.375,7.019,7.019,0,0,0,2.173-1.06,6.2,6.2,0,0,0,1.545-1.645,7.924,7.924,0,0,0,.949-2.131,8.586,8.586,0,0,0,.309-1.623q.087-.9.088-1.734V292.221h3.6v18.241q0,1.038-.11,2.164a14.533,14.533,0,0,1-.353,2.1,11.233,11.233,0,0,1-1.258,3.025,8.482,8.482,0,0,1-2.184,2.407,10.277,10.277,0,0,1-3.233,1.59,17.367,17.367,0,0,1-8.682.045,10.271,10.271,0,0,1-3.144-1.469,8.239,8.239,0,0,1-2.151-2.231,11,11,0,0,1-1.3-2.815,13.575,13.575,0,0,1-.475-2.363,21.787,21.787,0,0,1-.143-2.451V292.221h3.6V310.55a15,15,0,0,0,.143,2.043,9.468,9.468,0,0,0,.452,1.91,6.777,6.777,0,0,0,2.571,3.379A8.242,8.242,0,0,0,491.783,319.118Z" fill="#0a0000"/><path d="M521.283,321.768h-3.6v-26.3h-9.863v-3.246h23.323v3.246h-9.863Z" fill="#0a0000"/><path d="M537.587,321.768V292.221h3.6v29.547Z" fill="#0a0000"/><path d="M576.882,307.017a18.862,18.862,0,0,1-.964,6.161,14.119,14.119,0,0,1-2.758,4.836,12.563,12.563,0,0,1-4.323,3.169,13.641,13.641,0,0,1-5.658,1.137,14.148,14.148,0,0,1-5.8-1.137,12.283,12.283,0,0,1-4.334-3.169,14.048,14.048,0,0,1-2.714-4.836,19.246,19.246,0,0,1-.942-6.161,18.825,18.825,0,0,1,.975-6.2,14.376,14.376,0,0,1,2.757-4.847,12.467,12.467,0,0,1,4.323-3.169,13.779,13.779,0,0,1,5.692-1.137,14.017,14.017,0,0,1,5.767,1.137,12.329,12.329,0,0,1,4.323,3.169,14.062,14.062,0,0,1,2.715,4.847A19.456,19.456,0,0,1,576.882,307.017Zm-3.575,0a16.158,16.158,0,0,0-.781-5.256,10.863,10.863,0,0,0-2.152-3.8,8.993,8.993,0,0,0-3.235-2.308,10.617,10.617,0,0,0-8.008,0,9,9,0,0,0-3.234,2.308,10.879,10.879,0,0,0-2.153,3.8,16.185,16.185,0,0,0-.78,5.256,15.862,15.862,0,0,0,.792,5.244,11.008,11.008,0,0,0,2.163,3.788,8.9,8.9,0,0,0,3.235,2.3,10.385,10.385,0,0,0,4.026.773,10.165,10.165,0,0,0,3.982-.773,8.936,8.936,0,0,0,3.212-2.3,10.879,10.879,0,0,0,2.152-3.788A16.057,16.057,0,0,0,573.307,307.017Z" fill="#0a0000"/><path d="M598.659,308.7q2.715,3.909,5.362,8.039h.132q-.287-4.307-.287-8.79V292.221h3.619v29.547h-3.6L592.3,305.294q-3-4.307-5.362-8.038h-.132q.285,4.041.286,9.429v15.083h-3.6V292.221h3.575Z" fill="#0a0000"/><path d="M617.833,300.038a4.014,4.014,0,0,0,.528,2.153,4.316,4.316,0,0,0,1.419,1.4,8.591,8.591,0,0,0,2.069.9q1.176.354,2.453.663,1.716.419,3.377.927a10.657,10.657,0,0,1,2.959,1.4,6.829,6.829,0,0,1,2.1,2.329,7.5,7.5,0,0,1,.8,3.688,8.459,8.459,0,0,1-.87,3.964,7.547,7.547,0,0,1-2.4,2.739,10.829,10.829,0,0,1-3.631,1.59,19.136,19.136,0,0,1-4.59.518,19.942,19.942,0,0,1-2.349-.143q-1.2-.144-2.295-.386a17.271,17.271,0,0,1-1.975-.553,7.517,7.517,0,0,1-1.39-.618v-3.291a13.561,13.561,0,0,0,1.787.729,20.065,20.065,0,0,0,2.052.564q1.06.231,2.14.364a16.806,16.806,0,0,0,2.03.132,15.8,15.8,0,0,0,2.946-.265,7.657,7.657,0,0,0,2.46-.883,4.553,4.553,0,0,0,1.677-1.689,5.306,5.306,0,0,0,.618-2.684,4.043,4.043,0,0,0-.541-2.186,4.451,4.451,0,0,0-1.445-1.424,8.539,8.539,0,0,0-2.085-.916q-1.18-.354-2.482-.663-1.722-.4-3.365-.895a10.57,10.57,0,0,1-2.935-1.38,6.679,6.679,0,0,1-2.073-2.274,7.182,7.182,0,0,1-.784-3.556,8.473,8.473,0,0,1,.823-3.875,7.636,7.636,0,0,1,2.228-2.683,9.568,9.568,0,0,1,3.237-1.568,14.544,14.544,0,0,1,3.906-.508,20.364,20.364,0,0,1,4.4.452,21.136,21.136,0,0,1,3.74,1.182v3.335a25.6,25.6,0,0,0-3.784-1.259,18.034,18.034,0,0,0-4.182-.508,10.354,10.354,0,0,0-2.912.364,5.726,5.726,0,0,0-2.052,1.038,4.152,4.152,0,0,0-1.214,1.634A5.526,5.526,0,0,0,617.833,300.038Z" fill="#0a0000"/><path d="M355.439,291.3l-18.293.1a20.379,20.379,0,1,1,0-40.757c.308,0,11.138.007,11.431.009V238.127l-11.43-.017a32.913,32.913,0,1,0,0,65.823l18.29-.1a20.272,20.272,0,1,1,0,40.541H312.4l12.68,12.752h30.362a32.914,32.914,0,1,0,0-65.826Z" fill="#0a0000"/><path d="M259.394,242.618A59.9,59.9,0,0,0,235.1,238.13H220.93l12.442,12.36h3.676a47.117,47.117,0,1,1-.367,94.233c-2.94.009-9.7.01-15.883.007V303.777l-12.452-11.652v65s21,.081,28.789,0a59.453,59.453,0,0,0,22.259-114.511Z" fill="#0a0000"/><path d="M316.648,357.129H303.921V344.377Z" fill="#c00000"/></g></svg>