<svg xmlns="http://www.w3.org/2000/svg" width="128.38" height="439.718" viewBox="0 0 128.38 439.718"><g transform="translate(-1691.62 -540.871)"><path d="M10.411,0V-73.528h5.13V0ZM97.337-37.468q0,18.508-9.707,27.988T59.114,0h-17.6V-73.528H61.378q17.6,0,26.781,9.2T97.337-37.468Zm-5.583.2q0-15.792-8.022-23.763T60.171-69H46.642V-4.526H58.813Q91.754-4.526,91.754-37.267ZM159.57,0H119.385V-73.528H159.57V-68.8H124.515v27.812h33.093v4.728H124.515V-4.728H159.57Zm61.981,0H181.367V-73.528h40.184V-68.8H186.5v27.812h33.093v4.728H186.5V-4.728h35.054Zm75.258,0h-5.18L248.075-65.28h-.4q.6,11.668.6,17.6V0h-4.929V-73.528h5.13l43.5,65.18h.3q-.453-9.053-.453-17.2V-73.528h4.979Z" transform="translate(1820 991) rotate(-90)" opacity="0.2"/><path d="M29.192-27.983q0,5.693-3.867,8.728T14.368-16.221H8.3V0H5.559V-39.263h9.614Q29.192-39.263,29.192-27.983ZM8.3-18.584h5.4q6.633,0,9.587-2.189t2.954-7.1q0-4.539-2.793-6.727T14.8-36.792H8.3Zm34.923,1.477V0H40.482V-39.263h9.346q7.3,0,10.8,2.7t3.491,8.124a10.616,10.616,0,0,1-2.081,6.66,11.57,11.57,0,0,1-6.324,3.894L66.371,0H63.094L52.97-17.107Zm0-2.363h7.493q4.968,0,7.708-2.216a7.914,7.914,0,0,0,2.739-6.539q0-4.485-2.686-6.526T49.72-36.792h-6.5Zm65.7-.215q0,9.346-4.673,14.784T91.357.537Q83.166.537,78.493-4.9T73.82-19.739q0-9.373,4.713-14.757T91.411-39.88q8.218,0,12.864,5.411T108.92-19.685Zm-32.119,0q0,8.433,3.76,13.038t10.8,4.606q7.09,0,10.836-4.565t3.746-13.079q0-8.486-3.746-13.011T91.411-37.222q-7.009,0-10.809,4.565T76.8-19.685ZM144.622,0H117.337V-2.041l22.988-34.644H118.384v-2.578H144v2.041L120.962-2.578h23.66Zm31.969,0H155.133V-39.263h21.458v2.524H157.873v14.851h17.671v2.524H157.873V-2.524h18.718ZM209.9-10.125a9.425,9.425,0,0,1-3.612,7.788q-3.612,2.874-9.6,2.874-7.2,0-11.038-1.584V-3.787a27.928,27.928,0,0,0,10.823,1.8A12.126,12.126,0,0,0,204.142-4.2a7.028,7.028,0,0,0,2.833-5.814,6.71,6.71,0,0,0-.94-3.693,8.575,8.575,0,0,0-3.062-2.672,37.754,37.754,0,0,0-6.23-2.6q-6.016-2.068-8.312-4.471a8.886,8.886,0,0,1-2.3-6.405,8.8,8.8,0,0,1,3.451-7.184,13.7,13.7,0,0,1,8.876-2.78,25.979,25.979,0,0,1,10.393,2.095l-.994,2.363a24.242,24.242,0,0,0-9.346-2.041,10.958,10.958,0,0,0-6.929,2.014,6.58,6.58,0,0,0-2.578,5.479,7.177,7.177,0,0,0,.792,3.572,7.283,7.283,0,0,0,2.592,2.511,35.48,35.48,0,0,0,6.177,2.672,33.3,33.3,0,0,1,6.9,3.075,9.865,9.865,0,0,1,3.37,3.384A9.235,9.235,0,0,1,209.9-10.125Zm32.721,0a9.425,9.425,0,0,1-3.612,7.788Q235.4.537,229.41.537q-7.2,0-11.038-1.584V-3.787a27.928,27.928,0,0,0,10.823,1.8A12.126,12.126,0,0,0,236.863-4.2a7.028,7.028,0,0,0,2.833-5.814,6.71,6.71,0,0,0-.94-3.693,8.575,8.575,0,0,0-3.062-2.672,37.754,37.754,0,0,0-6.23-2.6q-6.016-2.068-8.312-4.471a8.886,8.886,0,0,1-2.3-6.405,8.8,8.8,0,0,1,3.451-7.184,13.7,13.7,0,0,1,8.876-2.78,25.979,25.979,0,0,1,10.393,2.095l-.994,2.363a24.242,24.242,0,0,0-9.346-2.041,10.958,10.958,0,0,0-6.929,2.014,6.58,6.58,0,0,0-2.578,5.479,7.177,7.177,0,0,0,.792,3.572,7.283,7.283,0,0,0,2.592,2.511,35.48,35.48,0,0,0,6.177,2.672,33.3,33.3,0,0,1,6.9,3.075,9.865,9.865,0,0,1,3.37,3.384A9.235,9.235,0,0,1,242.623-10.125ZM275.129,0H253.671V-39.263h21.458v2.524H256.411v14.851h17.671v2.524H256.411V-2.524h18.718Z" transform="translate(1731.5 816) rotate(-90)" opacity="0.2"/></g></svg>