<svg xmlns="http://www.w3.org/2000/svg" xmlns:xlink="http://www.w3.org/1999/xlink" id="Capa_1" x="0" y="0" version="1.1" viewBox="0 0 150 100" xml:space="preserve" style="enable-background:new 0 0 150 100"><style type="text/css">.st0{fill:#f0f0f0}.st1{fill:#d80027}.st2{fill:#0052b4}</style><rect width="150" height="100" class="st0"/><polygon points="84.4 0 65.6 0 65.6 40.6 0 40.6 0 59.4 65.6 59.4 65.6 100 84.4 100 84.4 59.4 150 59.4 150 40.6 84.4 40.6" class="st1"/><g><polygon points="115.4 67.4 150 86.6 150 67.4" class="st2"/><polygon points="91.3 67.4 150 100 150 90.8 107.9 67.4" class="st2"/><polygon points="134.4 100 91.3 76.1 91.3 100" class="st2"/></g><polygon points="91.3 67.4 150 100 150 90.8 107.9 67.4" class="st0"/><polygon points="91.3 67.4 150 100 150 90.8 107.9 67.4" class="st1"/><g><polygon points="26.5 67.4 0 82.1 0 67.4" class="st2"/><polygon points="58.7 71.5 58.7 100 7.5 100" class="st2"/></g><polygon points="42.1 67.4 0 90.8 0 100 0 100 58.7 67.4" class="st1"/><g><polygon points="34.6 32.6 0 13.4 0 32.6" class="st2"/><polygon points="58.7 32.6 0 0 0 9.2 42.1 32.6" class="st2"/><polygon points="15.6 0 58.7 23.9 58.7 0" class="st2"/></g><polygon points="58.7 32.6 0 0 0 9.2 42.1 32.6" class="st0"/><polygon points="58.7 32.6 0 0 0 9.2 42.1 32.6" class="st1"/><g><polygon points="123.5 32.6 150 17.9 150 32.6" class="st2"/><polygon points="91.3 28.4 91.3 0 142.5 0" class="st2"/></g><polygon points="107.9 32.6 150 9.2 150 0 150 0 91.3 32.6" class="st1"/></svg>